<?xml version="1.0" encoding="UTF-8"?>
<!DOCTYPE svg PUBLIC "-//W3C//DTD SVG 1.1//EN" "http://www.w3.org/Graphics/SVG/1.1/DTD/svg11.dtd">
<svg xmlns="http://www.w3.org/2000/svg" version="1.1" width="252px" height="252px" style="shape-rendering:geometricPrecision; text-rendering:geometricPrecision; image-rendering:optimizeQuality; fill-rule:evenodd; clip-rule:evenodd" xmlns:xlink="http://www.w3.org/1999/xlink">
<g><path style="opacity:0.961" fill="#7e6fff" d="M 122.5,75.5 C 131.5,75.5 140.5,75.5 149.5,75.5C 149.333,89.504 149.5,103.504 150,117.5C 161.273,105.236 174.773,102.069 190.5,108C 204.957,117.48 211.957,130.98 211.5,148.5C 211.89,163.511 206.557,176.011 195.5,186C 183.061,192.946 170.394,193.279 157.5,187C 155,184.5 152.5,182 150,179.5C 149.502,182.817 149.335,186.15 149.5,189.5C 125.174,190.479 100.84,190.646 76.5,190C 64.6338,189.125 57.4672,182.958 55,171.5C 54.5001,156.504 54.3334,141.504 54.5,126.5C 49.9014,126.8 45.4014,126.467 41,125.5C 40.5005,119.509 40.3338,113.509 40.5,107.5C 45.1667,107.5 49.8333,107.5 54.5,107.5C 54.5,99.5 54.5,91.5 54.5,83.5C 63.5,83.5 72.5,83.5 81.5,83.5C 81.5,91.5 81.5,99.5 81.5,107.5C 90.5,107.5 99.5,107.5 108.5,107.5C 108.5,113.833 108.5,120.167 108.5,126.5C 99.5,126.5 90.5,126.5 81.5,126.5C 81.036,140.265 81.536,153.932 83,167.5C 84.4907,169.004 86.324,169.837 88.5,170C 99.8284,170.5 111.162,170.667 122.5,170.5C 122.5,138.833 122.5,107.167 122.5,75.5 Z M 161.5,125.5 C 174.202,123.431 181.368,128.765 183,141.5C 184.982,151.737 182.815,160.903 176.5,169C 160.639,175.468 151.806,169.968 150,152.5C 149.149,145.09 150.482,138.09 154,131.5C 156.134,128.847 158.634,126.847 161.5,125.5 Z"/></g>
</svg>
